{
  "accessors": [
    {
      "bufferView": 2,
      "componentType": 5126,
      "count": 5608,
      "max": [
        12.98211669921875,
        -0.15485073626041412,
        31.0
      ],
      "min": [
        -12.992201805114746,
        -10.76866626739502,
        0.0
      ],
      "type": "VEC3"
    },
    {
      "bufferView": 2,
      "byteOffset": 67296,
      "componentType": 5126,
      "count": 5608,
      "max": [
        1.0,
        1.0,
        1.0
      ],
      "min": [
        -1.0,
        -1.0,
        -1.0
      ],
      "type": "VEC3"
    },
    {
      "bufferView": 1,
      "componentType": 5126,
      "count": 5608,
      "max": [
        26.5,
        30.5
      ],
      "min": [
        -30.5,
        -5.3069071769714355
      ],
      "type": "VEC2"
    },
    {
      "bufferView": 0,
      "componentType": 5125,
      "count": 24438,
      "type": "SCALAR"
    }
  ],
  "asset": {
    "extras": {
      "author": "RΔXΔR (https://sketchfab.com/raxar_)",
      "license": "CC-BY-4.0 (http://creativecommons.org/licenses/by/4.0/)",
      "source": "https://sketchfab.com/3d-models/headphone-stand-06981a925b4245938a905b1921c44b26",
      "title": "Headphone stand"
    },
    "generator": "Sketchfab-14.59.0",
    "version": "2.0"
  },
  "bufferViews": [
    {
      "buffer": 0,
      "byteLength": 97752,
      "name": "floatBufferViews",
      "target": 34963
    },
    {
      "buffer": 0,
      "byteLength": 44864,
      "byteOffset": 97752,
      "byteStride": 8,
      "name": "floatBufferViews",
      "target": 34962
    },
    {
      "buffer": 0,
      "byteLength": 134592,
      "byteOffset": 142616,
      "byteStride": 12,
      "name": "floatBufferViews",
      "target": 34962
    }
  ],
  "buffers": [
    {
      "byteLength": 277208,
      "uri": "scene.bin"
    }
  ],
  "materials": [
    {
      "doubleSided": true,
      "name": "Carbon_Fiber_-_Twill",
      "pbrMetallicRoughness": {
        "baseColorFactor": [
          0.0,
          0.0,
          0.0,
          1.0
        ],
        "metallicFactor": 0.0,
        "roughnessFactor": 0.667
      }
    }
  ],
  "meshes": [
    {
      "name": "Body1_Carbon Fiber - Twill_0",
      "primitives": [
        {
          "attributes": {
            "NORMAL": 1,
            "POSITION": 0,
            "TEXCOORD_0": 2
          },
          "indices": 3,
          "material": 0,
          "mode": 4
        }
      ]
    }
  ],
  "nodes": [
    {
      "children": [
        1
      ],
      "matrix": [
        1.0,
        0.0,
        0.0,
        0.0,
        0.0,
        2.220446049250313e-16,
        -1.0,
        0.0,
        0.0,
        1.0,
        2.220446049250313e-16,
        0.0,
        0.0,
        0.0,
        0.0,
        1.0
      ],
      "name": "Sketchfab_model"
    },
    {
      "children": [
        2
      ],
      "matrix": [
        0.009999999776482582,
        0.0,
        0.0,
        0.0,
        0.0,
        0.0,
        0.009999999776482582,
        0.0,
        0.0,
        -0.009999999776482582,
        0.0,
        0.0,
        0.0,
        0.0,
        0.0,
        1.0
      ],
      "name": "357e8906e1ed4020b649e447185dae7c.fbx"
    },
    {
      "children": [
        3
      ],
      "name": "RootNode"
    },
    {
      "children": [
        4
      ],
      "matrix": [
        0.10000000149011612,
        0.0,
        0.0,
        0.0,
        0.0,
        1.9470719160676402e-08,
        -0.10000000149011423,
        0.0,
        0.0,
        0.10000000149011423,
        1.9470719160676402e-08,
        0.0,
        0.0,
        0.0,
        0.0,
        1.0
      ],
      "name": "Headphone stand v2"
    },
    {
      "children": [
        5
      ],
      "matrix": [
        10.0,
        0.0,
        0.0,
        0.0,
        0.0,
        10.0,
        1.1368683983919842e-13,
        0.0,
        0.0,
        -1.1368683983919842e-13,
        10.0,
        0.0,
        0.0,
        0.0,
        0.0,
        1.0
      ],
      "name": "Body1"
    },
    {
      "mesh": 0,
      "name": "Body1_Carbon Fiber - Twill_0"
    }
  ],
  "scene": 0,
  "scenes": [
    {
      "name": "Sketchfab_Scene",
      "nodes": [
        0
      ]
    }
  ]
}
