{
	"asset":{
		"generator":"Khronos glTF Blender I/O v4.0.44",
		"version":"2.0"
	},
	"scene":0,
	"scenes":[
		{
			"name":"Scene",
			"nodes":[
				23
			]
		}
	],
	"nodes":[
		{
			"mesh":0,
			"name":"b_box_lp_b_box_0.001"
		},
		{
			"children":[
				0
			],
			"name":"Object_10.001",
			"translation":[
				7.3119120597839355,
				14.404277801513672,
				-7.685842990875244
			]
		},
		{
			"children":[
				1
			],
			"name":"b_box_lp.001",
			"rotation":[
				0.7071068286895752,
				0.7071067690849304,
				0,
				1.5454316937280055e-08
			],
			"scale":[
				1.5180370807647705,
				0.9918383359909058,
				1.7891311645507812
			],
			"translation":[
				-48.46198654174805,
				3.9140615463256836,
				16.820444107055664
			]
		},
		{
			"mesh":1,
			"name":"fb_box1_lp_fb_box_0.001",
			"translation":[
				3.814697265625e-06,
				0,
				0
			]
		},
		{
			"children":[
				3
			],
			"name":"Object_19.001",
			"translation":[
				7.200374603271484,
				0,
				-7.499180316925049
			]
		},
		{
			"children":[
				4
			],
			"name":"fb_box1_lp.001",
			"rotation":[
				-0.70710688829422,
				0,
				0,
				0.7071066498756409
			],
			"translation":[
				-55.60874938964844,
				11.247103691101074,
				16.834617614746094
			]
		},
		{
			"mesh":2,
			"name":"fb_box2_lp_fb_box_0.001",
			"translation":[
				3.814697265625e-06,
				0,
				0
			]
		},
		{
			"children":[
				6
			],
			"name":"Object_22.001",
			"translation":[
				7.200374603271484,
				0,
				-7.499180316925049
			]
		},
		{
			"children":[
				7
			],
			"name":"fb_box2_lp.001",
			"rotation":[
				-0.70710688829422,
				0,
				0,
				0.7071066498756409
			],
			"translation":[
				-55.60874938964844,
				11.247103691101074,
				16.834617614746094
			]
		},
		{
			"mesh":3,
			"name":"lr_box1_lp_lr_box_0.001",
			"translation":[
				-3.814697265625e-06,
				0,
				0
			]
		},
		{
			"children":[
				9
			],
			"name":"Object_4.001",
			"translation":[
				-0.04679107666015625,
				-9.189180374145508,
				-7.499179363250732
			]
		},
		{
			"children":[
				10
			],
			"name":"lr_box1_lp.001",
			"rotation":[
				-0.70710688829422,
				0,
				0,
				0.7071066498756409
			],
			"translation":[
				-48.36259078979492,
				11.247103691101074,
				7.528218746185303
			]
		},
		{
			"mesh":4,
			"name":"lr_box2_lp_lr_box_0.001",
			"translation":[
				-3.814697265625e-06,
				0,
				0
			]
		},
		{
			"children":[
				12
			],
			"name":"Object_16.001",
			"translation":[
				-0.04679107666015625,
				-9.189180374145508,
				-7.499179363250732
			]
		},
		{
			"children":[
				13
			],
			"name":"lr_box2_lp.001",
			"rotation":[
				-0.70710688829422,
				0,
				0,
				0.7071066498756409
			],
			"translation":[
				-48.36259078979492,
				11.247103691101074,
				7.528218746185303
			]
		},
		{
			"mesh":5,
			"name":"t_box1_lp_t_box_0.001",
			"translation":[
				-3.814697265625e-06,
				0,
				0
			]
		},
		{
			"children":[
				15
			],
			"name":"Object_7.001",
			"translation":[
				-3.814697265625e-06,
				0,
				-15.364823341369629
			]
		},
		{
			"children":[
				16
			],
			"name":"t_box1_lp.001",
			"rotation":[
				-0.70710688829422,
				0,
				0,
				0.7071066498756409
			],
			"translation":[
				-48.409385681152344,
				18.58855438232422,
				16.834617614746094
			]
		},
		{
			"mesh":6,
			"name":"t_box2_lp_t_box_0.001",
			"translation":[
				-3.814697265625e-06,
				0,
				0
			]
		},
		{
			"children":[
				18
			],
			"name":"Object_13.001",
			"translation":[
				-3.814697265625e-06,
				0,
				-15.364823341369629
			]
		},
		{
			"children":[
				19
			],
			"name":"t_box2_lp.001",
			"rotation":[
				-0.70710688829422,
				0,
				0,
				0.7071066498756409
			],
			"translation":[
				-48.409385681152344,
				18.58855438232422,
				16.834617614746094
			]
		},
		{
			"children":[
				2,
				5,
				8,
				11,
				14,
				17,
				20
			],
			"name":"RootNode.001"
		},
		{
			"children":[
				21
			],
			"name":"box_lp.FBX.001",
			"rotation":[
				0.70710688829422,
				0,
				0,
				0.7071066498756409
			]
		},
		{
			"children":[
				22
			],
			"name":"Sketchfab_model.001",
			"rotation":[
				-0.7071067690849304,
				0,
				0,
				0.7071068286895752
			],
			"scale":[
				0.062395572662353516,
				0.062395572662353516,
				0.062395572662353516
			]
		}
	],
	"materials":[
		{
			"doubleSided":true,
			"name":"b_box.001",
			"normalTexture":{
				"index":0
			},
			"occlusionTexture":{
				"index":1
			},
			"pbrMetallicRoughness":{
				"baseColorTexture":{
					"index":2
				},
				"metallicRoughnessTexture":{
					"index":1
				}
			}
		},
		{
			"doubleSided":true,
			"name":"fb_box.001",
			"normalTexture":{
				"index":3
			},
			"occlusionTexture":{
				"index":4
			},
			"pbrMetallicRoughness":{
				"baseColorTexture":{
					"index":5
				},
				"metallicRoughnessTexture":{
					"index":4
				}
			}
		},
		{
			"doubleSided":true,
			"name":"lr_box.001",
			"normalTexture":{
				"index":6
			},
			"occlusionTexture":{
				"index":7
			},
			"pbrMetallicRoughness":{
				"baseColorTexture":{
					"index":8
				},
				"metallicRoughnessTexture":{
					"index":7
				}
			}
		},
		{
			"doubleSided":true,
			"name":"t_box.002",
			"normalTexture":{
				"index":9
			},
			"occlusionTexture":{
				"index":10
			},
			"pbrMetallicRoughness":{
				"baseColorTexture":{
					"index":11
				},
				"metallicRoughnessTexture":{
					"index":10
				}
			}
		}
	],
	"meshes":[
		{
			"name":"b_box_lp_b_box_0.001",
			"primitives":[
				{
					"attributes":{
						"POSITION":0,
						"NORMAL":1,
						"TEXCOORD_0":2
					},
					"indices":3,
					"material":0
				}
			]
		},
		{
			"name":"fb_box1_lp_fb_box_0.001",
			"primitives":[
				{
					"attributes":{
						"POSITION":4,
						"NORMAL":5,
						"TEXCOORD_0":6
					},
					"indices":7,
					"material":1
				}
			]
		},
		{
			"name":"fb_box2_lp_fb_box_0.001",
			"primitives":[
				{
					"attributes":{
						"POSITION":8,
						"NORMAL":9,
						"TEXCOORD_0":10
					},
					"indices":11,
					"material":1
				}
			]
		},
		{
			"name":"lr_box1_lp_lr_box_0.001",
			"primitives":[
				{
					"attributes":{
						"POSITION":12,
						"NORMAL":13,
						"TEXCOORD_0":14
					},
					"indices":15,
					"material":2
				}
			]
		},
		{
			"name":"lr_box2_lp_lr_box_0.001",
			"primitives":[
				{
					"attributes":{
						"POSITION":16,
						"NORMAL":17,
						"TEXCOORD_0":18
					},
					"indices":19,
					"material":2
				}
			]
		},
		{
			"name":"t_box1_lp_t_box_0.001",
			"primitives":[
				{
					"attributes":{
						"POSITION":20,
						"NORMAL":21,
						"TEXCOORD_0":22
					},
					"indices":23,
					"material":3
				}
			]
		},
		{
			"name":"t_box2_lp_t_box_0.001",
			"primitives":[
				{
					"attributes":{
						"POSITION":24,
						"NORMAL":25,
						"TEXCOORD_0":26
					},
					"indices":27,
					"material":3
				}
			]
		}
	],
	"textures":[
		{
			"sampler":0,
			"source":0
		},
		{
			"sampler":0,
			"source":1
		},
		{
			"sampler":0,
			"source":2
		},
		{
			"sampler":0,
			"source":3
		},
		{
			"sampler":0,
			"source":4
		},
		{
			"sampler":0,
			"source":5
		},
		{
			"sampler":0,
			"source":6
		},
		{
			"sampler":0,
			"source":7
		},
		{
			"sampler":0,
			"source":8
		},
		{
			"sampler":0,
			"source":9
		},
		{
			"sampler":0,
			"source":10
		},
		{
			"sampler":0,
			"source":11
		}
	],
	"images":[
		{
			"mimeType":"image/png",
			"name":"b_box_normal",
			"uri":"textures/b_box_normal.png"
		},
		{
			"mimeType":"image/png",
			"name":"b_box_metallicRoughness",
			"uri":"textures/b_box_metallicRoughness.png"
		},
		{
			"mimeType":"image/png",
			"name":"b_box_baseColor",
			"uri":"textures/b_box_baseColor.png"
		},
		{
			"mimeType":"image/png",
			"name":"fb_box_normal",
			"uri":"textures/fb_box_normal.png"
		},
		{
			"mimeType":"image/png",
			"name":"fb_box_metallicRoughness",
			"uri":"textures/fb_box_metallicRoughness.png"
		},
		{
			"mimeType":"image/png",
			"name":"fb_box_baseColor",
			"uri":"textures/fb_box_baseColor.png"
		},
		{
			"mimeType":"image/png",
			"name":"lr_box_normal",
			"uri":"textures/lr_box_normal.png"
		},
		{
			"mimeType":"image/png",
			"name":"lr_box_metallicRoughness",
			"uri":"textures/lr_box_metallicRoughness.png"
		},
		{
			"mimeType":"image/png",
			"name":"lr_box_baseColor",
			"uri":"textures/lr_box_baseColor.png"
		},
		{
			"mimeType":"image/png",
			"name":"t_box_normal",
			"uri":"textures/t_box_normal.png"
		},
		{
			"mimeType":"image/png",
			"name":"t_box_metallicRoughness",
			"uri":"textures/t_box_metallicRoughness.png"
		},
		{
			"mimeType":"image/png",
			"name":"NATS-BOX-TOP-420-69",
			"uri":"textures/NATS-BOX-TOP-420-69.png"
		}
	],
	"accessors":[
		{
			"bufferView":0,
			"componentType":5126,
			"count":24,
			"max":[
				-7.239595413208008,
				-7.069010257720947,
				12.882972717285156
			],
			"min":[
				-7.384864330291748,
				-21.739253997802734,
				2.488708972930908
			],
			"type":"VEC3"
		},
		{
			"bufferView":1,
			"componentType":5126,
			"count":24,
			"type":"VEC3"
		},
		{
			"bufferView":2,
			"componentType":5126,
			"count":24,
			"type":"VEC2"
		},
		{
			"bufferView":3,
			"componentType":5123,
			"count":36,
			"type":"SCALAR"
		},
		{
			"bufferView":4,
			"componentType":5126,
			"count":976,
			"max":[
				7.292135238647461,
				9.403325080871582,
				14.731544494628906
			],
			"min":[
				-7.331965923309326,
				-9.403324127197266,
				0.27000582218170166
			],
			"type":"VEC3"
		},
		{
			"bufferView":5,
			"componentType":5126,
			"count":976,
			"type":"VEC3"
		},
		{
			"bufferView":6,
			"componentType":5126,
			"count":976,
			"type":"VEC2"
		},
		{
			"bufferView":7,
			"componentType":5123,
			"count":1824,
			"type":"SCALAR"
		},
		{
			"bufferView":8,
			"componentType":5126,
			"count":40,
			"max":[
				7.04075813293457,
				9.11876106262207,
				14.587553977966309
			],
			"min":[
				-7.089324474334717,
				-9.090418815612793,
				0.4925670623779297
			],
			"type":"VEC3"
		},
		{
			"bufferView":9,
			"componentType":5126,
			"count":40,
			"type":"VEC3"
		},
		{
			"bufferView":10,
			"componentType":5126,
			"count":40,
			"type":"VEC2"
		},
		{
			"bufferView":11,
			"componentType":5123,
			"count":60,
			"type":"SCALAR"
		},
		{
			"bufferView":12,
			"componentType":5126,
			"count":762,
			"max":[
				7.044994354248047,
				9.318550109863281,
				14.75478458404541
			],
			"min":[
				-7.068824768066406,
				-9.532503128051758,
				0.27768027782440186
			],
			"type":"VEC3"
		},
		{
			"bufferView":13,
			"componentType":5126,
			"count":762,
			"type":"VEC3"
		},
		{
			"bufferView":14,
			"componentType":5126,
			"count":762,
			"type":"VEC2"
		},
		{
			"bufferView":15,
			"componentType":5123,
			"count":1440,
			"type":"SCALAR"
		},
		{
			"bufferView":16,
			"componentType":5126,
			"count":40,
			"max":[
				7.0457916259765625,
				9.126179695129395,
				14.547552108764648
			],
			"min":[
				-6.9495697021484375,
				-9.333821296691895,
				0.30729103088378906
			],
			"type":"VEC3"
		},
		{
			"bufferView":17,
			"componentType":5126,
			"count":40,
			"type":"VEC3"
		},
		{
			"bufferView":18,
			"componentType":5126,
			"count":40,
			"type":"VEC2"
		},
		{
			"bufferView":19,
			"componentType":5123,
			"count":60,
			"type":"SCALAR"
		},
		{
			"bufferView":20,
			"componentType":5126,
			"count":342,
			"max":[
				7.283464431762695,
				9.251968383789062,
				15.4847993850708
			],
			"min":[
				-7.283464431762695,
				-9.251968383789062,
				15.241351127624512
			],
			"type":"VEC3"
		},
		{
			"bufferView":21,
			"componentType":5126,
			"count":342,
			"type":"VEC3"
		},
		{
			"bufferView":22,
			"componentType":5126,
			"count":342,
			"type":"VEC2"
		},
		{
			"bufferView":23,
			"componentType":5123,
			"count":528,
			"type":"SCALAR"
		},
		{
			"bufferView":24,
			"componentType":5126,
			"count":20,
			"max":[
				7.073405742645264,
				9.06454086303711,
				15.287520408630371
			],
			"min":[
				-7.044395446777344,
				-9.058838844299316,
				15.096652030944824
			],
			"type":"VEC3"
		},
		{
			"bufferView":25,
			"componentType":5126,
			"count":20,
			"type":"VEC3"
		},
		{
			"bufferView":26,
			"componentType":5126,
			"count":20,
			"type":"VEC2"
		},
		{
			"bufferView":27,
			"componentType":5123,
			"count":30,
			"type":"SCALAR"
		}
	],
	"bufferViews":[
		{
			"buffer":0,
			"byteLength":288,
			"byteOffset":0,
			"target":34962
		},
		{
			"buffer":0,
			"byteLength":288,
			"byteOffset":288,
			"target":34962
		},
		{
			"buffer":0,
			"byteLength":192,
			"byteOffset":576,
			"target":34962
		},
		{
			"buffer":0,
			"byteLength":72,
			"byteOffset":768,
			"target":34963
		},
		{
			"buffer":0,
			"byteLength":11712,
			"byteOffset":840,
			"target":34962
		},
		{
			"buffer":0,
			"byteLength":11712,
			"byteOffset":12552,
			"target":34962
		},
		{
			"buffer":0,
			"byteLength":7808,
			"byteOffset":24264,
			"target":34962
		},
		{
			"buffer":0,
			"byteLength":3648,
			"byteOffset":32072,
			"target":34963
		},
		{
			"buffer":0,
			"byteLength":480,
			"byteOffset":35720,
			"target":34962
		},
		{
			"buffer":0,
			"byteLength":480,
			"byteOffset":36200,
			"target":34962
		},
		{
			"buffer":0,
			"byteLength":320,
			"byteOffset":36680,
			"target":34962
		},
		{
			"buffer":0,
			"byteLength":120,
			"byteOffset":37000,
			"target":34963
		},
		{
			"buffer":0,
			"byteLength":9144,
			"byteOffset":37120,
			"target":34962
		},
		{
			"buffer":0,
			"byteLength":9144,
			"byteOffset":46264,
			"target":34962
		},
		{
			"buffer":0,
			"byteLength":6096,
			"byteOffset":55408,
			"target":34962
		},
		{
			"buffer":0,
			"byteLength":2880,
			"byteOffset":61504,
			"target":34963
		},
		{
			"buffer":0,
			"byteLength":480,
			"byteOffset":64384,
			"target":34962
		},
		{
			"buffer":0,
			"byteLength":480,
			"byteOffset":64864,
			"target":34962
		},
		{
			"buffer":0,
			"byteLength":320,
			"byteOffset":65344,
			"target":34962
		},
		{
			"buffer":0,
			"byteLength":120,
			"byteOffset":65664,
			"target":34963
		},
		{
			"buffer":0,
			"byteLength":4104,
			"byteOffset":65784,
			"target":34962
		},
		{
			"buffer":0,
			"byteLength":4104,
			"byteOffset":69888,
			"target":34962
		},
		{
			"buffer":0,
			"byteLength":2736,
			"byteOffset":73992,
			"target":34962
		},
		{
			"buffer":0,
			"byteLength":1056,
			"byteOffset":76728,
			"target":34963
		},
		{
			"buffer":0,
			"byteLength":240,
			"byteOffset":77784,
			"target":34962
		},
		{
			"buffer":0,
			"byteLength":240,
			"byteOffset":78024,
			"target":34962
		},
		{
			"buffer":0,
			"byteLength":160,
			"byteOffset":78264,
			"target":34962
		},
		{
			"buffer":0,
			"byteLength":60,
			"byteOffset":78424,
			"target":34963
		}
	],
	"samplers":[
		{
			"magFilter":9729,
			"minFilter":9987
		}
	],
	"buffers":[
		{
			"byteLength":78484,
			"uri":"scene.bin"
		}
	]
}
