{
	"asset":{
		"generator":"Khronos glTF Blender I/O v4.0.44",
		"version":"2.0"
	},
	"scene":0,
	"scenes":[
		{
			"name":"Scene",
			"nodes":[
				6
			]
		}
	],
	"nodes":[
		{
			"mesh":0,
			"name":"Spotlight.001_Spotlight_0"
		},
		{
			"children":[
				0
			],
			"name":"Spotlight.001",
			"translation":[
				0,
				-25.700044631958008,
				0
			]
		},
		{
			"mesh":1,
			"name":"Spotlight_Spotlight_0"
		},
		{
			"children":[
				1,
				2
			],
			"name":"Spotlight"
		},
		{
			"children":[
				3
			],
			"name":"RootNode"
		},
		{
			"children":[
				4
			],
			"name":"Spotlight.fbx",
			"rotation":[
				0.70710688829422,
				0,
				0,
				0.7071066498756409
			],
			"scale":[
				0.009999999776482582,
				0.010000000707805157,
				0.010000000707805157
			]
		},
		{
			"children":[
				5
			],
			"name":"Sketchfab_model",
			"rotation":[
				0.70710688829422,
				0,
				0,
				0.7071066498756409
			]
		}
	],
	"materials":[
		{
			"doubleSided":true,
			"emissiveFactor":[
				1,
				1,
				1
			],
			"emissiveTexture":{
				"index":0
			},
			"name":"Spotlight",
			"normalTexture":{
				"index":1
			},
			"pbrMetallicRoughness":{
				"baseColorTexture":{
					"index":2
				},
				"metallicRoughnessTexture":{
					"index":3
				}
			}
		}
	],
	"meshes":[
		{
			"name":"Spotlight.001_Spotlight_0",
			"primitives":[
				{
					"attributes":{
						"POSITION":0,
						"NORMAL":1,
						"TEXCOORD_0":2,
						"TEXCOORD_1":3,
						"TEXCOORD_2":4,
						"TEXCOORD_3":5
					},
					"indices":6,
					"material":0
				}
			]
		},
		{
			"name":"Spotlight_Spotlight_0",
			"primitives":[
				{
					"attributes":{
						"POSITION":7,
						"NORMAL":8,
						"TEXCOORD_0":9,
						"TEXCOORD_1":10,
						"TEXCOORD_2":11,
						"TEXCOORD_3":12
					},
					"indices":13,
					"material":0
				}
			]
		}
	],
	"textures":[
		{
			"sampler":0,
			"source":0
		},
		{
			"sampler":0,
			"source":1
		},
		{
			"sampler":0,
			"source":2
		},
		{
			"sampler":0,
			"source":3
		}
	],
	"images":[
		{
			"mimeType":"image/png",
			"name":"Spotlight_emissive",
			"uri":"Spotlight_emissive.png"
		},
		{
			"mimeType":"image/png",
			"name":"Spotlight_normal",
			"uri":"Spotlight_normal.png"
		},
		{
			"mimeType":"image/png",
			"name":"Spotlight_baseColor",
			"uri":"Spotlight_baseColor.png"
		},
		{
			"mimeType":"image/png",
			"name":"Spotlight_metallicRoughness",
			"uri":"Spotlight_metallicRoughness.png"
		}
	],
	"accessors":[
		{
			"bufferView":0,
			"componentType":5126,
			"count":180,
			"max":[
				15.51503849029541,
				8.829193115234375,
				8.500000953674316
			],
			"min":[
				-8.651884078979492,
				-12.629138946533203,
				-8.500000953674316
			],
			"type":"VEC3"
		},
		{
			"bufferView":1,
			"componentType":5126,
			"count":180,
			"type":"VEC3"
		},
		{
			"bufferView":2,
			"componentType":5126,
			"count":180,
			"type":"VEC2"
		},
		{
			"bufferView":3,
			"componentType":5126,
			"count":180,
			"type":"VEC2"
		},
		{
			"bufferView":4,
			"componentType":5126,
			"count":180,
			"type":"VEC2"
		},
		{
			"bufferView":5,
			"componentType":5126,
			"count":180,
			"type":"VEC2"
		},
		{
			"bufferView":6,
			"componentType":5123,
			"count":180,
			"type":"SCALAR"
		},
		{
			"bufferView":7,
			"componentType":5126,
			"count":544,
			"max":[
				5.000000476837158,
				5.820766091346741e-09,
				9.799999237060547
			],
			"min":[
				-5.000000476837158,
				-26.999998092651367,
				-9.799999237060547
			],
			"type":"VEC3"
		},
		{
			"bufferView":8,
			"componentType":5126,
			"count":544,
			"type":"VEC3"
		},
		{
			"bufferView":9,
			"componentType":5126,
			"count":544,
			"type":"VEC2"
		},
		{
			"bufferView":10,
			"componentType":5126,
			"count":544,
			"type":"VEC2"
		},
		{
			"bufferView":11,
			"componentType":5126,
			"count":544,
			"type":"VEC2"
		},
		{
			"bufferView":12,
			"componentType":5126,
			"count":544,
			"type":"VEC2"
		},
		{
			"bufferView":13,
			"componentType":5123,
			"count":648,
			"type":"SCALAR"
		}
	],
	"bufferViews":[
		{
			"buffer":0,
			"byteLength":2160,
			"byteOffset":0,
			"target":34962
		},
		{
			"buffer":0,
			"byteLength":2160,
			"byteOffset":2160,
			"target":34962
		},
		{
			"buffer":0,
			"byteLength":1440,
			"byteOffset":4320,
			"target":34962
		},
		{
			"buffer":0,
			"byteLength":1440,
			"byteOffset":5760,
			"target":34962
		},
		{
			"buffer":0,
			"byteLength":1440,
			"byteOffset":7200,
			"target":34962
		},
		{
			"buffer":0,
			"byteLength":1440,
			"byteOffset":8640,
			"target":34962
		},
		{
			"buffer":0,
			"byteLength":360,
			"byteOffset":10080,
			"target":34963
		},
		{
			"buffer":0,
			"byteLength":6528,
			"byteOffset":10440,
			"target":34962
		},
		{
			"buffer":0,
			"byteLength":6528,
			"byteOffset":16968,
			"target":34962
		},
		{
			"buffer":0,
			"byteLength":4352,
			"byteOffset":23496,
			"target":34962
		},
		{
			"buffer":0,
			"byteLength":4352,
			"byteOffset":27848,
			"target":34962
		},
		{
			"buffer":0,
			"byteLength":4352,
			"byteOffset":32200,
			"target":34962
		},
		{
			"buffer":0,
			"byteLength":4352,
			"byteOffset":36552,
			"target":34962
		},
		{
			"buffer":0,
			"byteLength":1296,
			"byteOffset":40904,
			"target":34963
		}
	],
	"samplers":[
		{
			"magFilter":9729,
			"minFilter":9987
		}
	],
	"buffers":[
		{
			"byteLength":42200,
			"uri":"scene.bin"
		}
	]
}
