{
	"asset":{
		"generator":"Khronos glTF Blender I/O v4.0.44",
		"version":"2.0"
	},
	"extensionsUsed":[
		"KHR_materials_unlit"
	],
	"scene":0,
	"scenes":[
		{
			"name":"Scene",
			"nodes":[
				6
			]
		}
	],
	"nodes":[
		{
			"mesh":0,
			"name":"Baked_Baked_0",
			"scale":[
				2.353635311126709,
				2.353635549545288,
				2.353635549545288
			]
		},
		{
			"mesh":1,
			"name":"Baked_Baked_0.001",
			"scale":[
				2.353635311126709,
				2.353635549545288,
				2.353635549545288
			]
		},
		{
			"mesh":2,
			"name":"Baked_Baked_0.002",
			"scale":[
				2.353635311126709,
				2.353635549545288,
				2.353635549545288
			]
		},
		{
			"children":[
				0,
				1,
				2
			],
			"name":"Baked",
			"rotation":[
				-0.70710688829422,
				0,
				0,
				0.7071066498756409
			],
			"scale":[
				100.00000762939453,
				99.99998474121094,
				99.99998474121094
			]
		},
		{
			"children":[
				3
			],
			"name":"RootNode"
		},
		{
			"children":[
				4
			],
			"name":"08c6691333a4472bbab6b409c6b87940.fbx",
			"rotation":[
				0.70710688829422,
				0,
				0,
				0.7071066498756409
			],
			"scale":[
				0.009999999776482582,
				0.009999998845160007,
				0.009999998845160007
			]
		},
		{
			"children":[
				5
			],
			"name":"Sketchfab_model",
			"rotation":[
				-0.70710688829422,
				0,
				0,
				0.7071066498756409
			]
		}
	],
	"materials":[
		{
			"extensions":{
				"KHR_materials_unlit":{}
			},
			"name":"Baked",
			"pbrMetallicRoughness":{
				"baseColorTexture":{
					"index":0
				},
				"metallicFactor":0,
				"roughnessFactor":0.9
			}
		},
		{
			"doubleSided":true,
			"name":"painted_plaster_wall",
			"normalTexture":{
				"index":1
			},
			"pbrMetallicRoughness":{
				"baseColorTexture":{
					"index":2
				},
				"metallicFactor":0,
				"metallicRoughnessTexture":{
					"index":3
				}
			}
		},
		{
			"doubleSided":true,
			"name":"laminate_floor_02",
			"normalTexture":{
				"index":4
			},
			"pbrMetallicRoughness":{
				"baseColorTexture":{
					"index":5
				},
				"metallicFactor":0,
				"metallicRoughnessTexture":{
					"index":6
				}
			}
		}
	],
	"meshes":[
		{
			"name":"Baked_Baked_0",
			"primitives":[
				{
					"attributes":{
						"POSITION":0,
						"NORMAL":1,
						"TEXCOORD_0":2,
						"TEXCOORD_1":3
					},
					"indices":4,
					"material":0
				}
			]
		},
		{
			"name":"Baked_Baked_0.001",
			"primitives":[
				{
					"attributes":{
						"POSITION":5,
						"NORMAL":6,
						"TEXCOORD_0":7,
						"TEXCOORD_1":8
					},
					"indices":9,
					"material":1
				}
			]
		},
		{
			"name":"Baked_Baked_0.002",
			"primitives":[
				{
					"attributes":{
						"POSITION":10,
						"NORMAL":11,
						"TEXCOORD_0":12,
						"TEXCOORD_1":13
					},
					"indices":14,
					"material":2
				}
			]
		}
	],
	"textures":[
		{
			"sampler":0,
			"source":0
		},
		{
			"sampler":0,
			"source":1
		},
		{
			"sampler":0,
			"source":2
		},
		{
			"sampler":0,
			"source":3
		},
		{
			"sampler":0,
			"source":4
		},
		{
			"sampler":0,
			"source":5
		},
		{
			"sampler":0,
			"source":6
		}
	],
	"images":[
		{
			"mimeType":"image/png",
			"name":"Baked_baseColor",
			"uri":"Baked_baseColor.png"
		},
		{
			"mimeType":"image/png",
			"name":"painted_plaster_wall_nor_gl",
			"uri":"painted_plaster_wall_nor_gl.png"
		},
		{
			"mimeType":"image/jpeg",
			"name":"painted_plaster_wall_diff_4k",
			"uri":"painted_plaster_wall_diff_4k.jpg"
		},
		{
			"mimeType":"image/png",
			"name":"painted_plaster_wall_rough",
			"uri":"painted_plaster_wall_rough.png"
		},
		{
			"mimeType":"image/png",
			"name":"laminate_floor_02_nor_gl_8k",
			"uri":"laminate_floor_02_nor_gl_8k.png"
		},
		{
			"mimeType":"image/jpeg",
			"name":"laminate_floor_02_diff_4k",
			"uri":"laminate_floor_02_diff_4k.jpg"
		},
		{
			"mimeType":"image/png",
			"name":"laminate_floor_02_rough_8k",
			"uri":"laminate_floor_02_rough_8k.png"
		}
	],
	"accessors":[
		{
			"bufferView":0,
			"componentType":5126,
			"count":354,
			"max":[
				10.100000381469727,
				8.085064888000488,
				15.797040939331055
			],
			"min":[
				-7.000469207763672,
				-8.085064888000488,
				-1.601874828338623e-07
			],
			"type":"VEC3"
		},
		{
			"bufferView":1,
			"componentType":5126,
			"count":354,
			"type":"VEC3"
		},
		{
			"bufferView":2,
			"componentType":5126,
			"count":354,
			"type":"VEC2"
		},
		{
			"bufferView":3,
			"componentType":5126,
			"count":354,
			"type":"VEC2"
		},
		{
			"bufferView":4,
			"componentType":5123,
			"count":516,
			"type":"SCALAR"
		},
		{
			"bufferView":5,
			"componentType":5126,
			"count":40,
			"max":[
				10,
				8,
				9.648603439331055
			],
			"min":[
				-7,
				-8,
				0.05000000447034836
			],
			"type":"VEC3"
		},
		{
			"bufferView":6,
			"componentType":5126,
			"count":40,
			"type":"VEC3"
		},
		{
			"bufferView":7,
			"componentType":5126,
			"count":40,
			"type":"VEC2"
		},
		{
			"bufferView":8,
			"componentType":5126,
			"count":40,
			"type":"VEC2"
		},
		{
			"bufferView":9,
			"componentType":5123,
			"count":48,
			"type":"SCALAR"
		},
		{
			"bufferView":10,
			"componentType":5126,
			"count":7,
			"max":[
				10.212754249572754,
				8.18097972869873,
				0
			],
			"min":[
				-7.150439739227295,
				-8.18097972869873,
				0
			],
			"type":"VEC3"
		},
		{
			"bufferView":11,
			"componentType":5126,
			"count":7,
			"type":"VEC3"
		},
		{
			"bufferView":12,
			"componentType":5126,
			"count":7,
			"type":"VEC2"
		},
		{
			"bufferView":13,
			"componentType":5126,
			"count":7,
			"type":"VEC2"
		},
		{
			"bufferView":14,
			"componentType":5123,
			"count":15,
			"type":"SCALAR"
		}
	],
	"bufferViews":[
		{
			"buffer":0,
			"byteLength":4248,
			"byteOffset":0,
			"target":34962
		},
		{
			"buffer":0,
			"byteLength":4248,
			"byteOffset":4248,
			"target":34962
		},
		{
			"buffer":0,
			"byteLength":2832,
			"byteOffset":8496,
			"target":34962
		},
		{
			"buffer":0,
			"byteLength":2832,
			"byteOffset":11328,
			"target":34962
		},
		{
			"buffer":0,
			"byteLength":1032,
			"byteOffset":14160,
			"target":34963
		},
		{
			"buffer":0,
			"byteLength":480,
			"byteOffset":15192,
			"target":34962
		},
		{
			"buffer":0,
			"byteLength":480,
			"byteOffset":15672,
			"target":34962
		},
		{
			"buffer":0,
			"byteLength":320,
			"byteOffset":16152,
			"target":34962
		},
		{
			"buffer":0,
			"byteLength":320,
			"byteOffset":16472,
			"target":34962
		},
		{
			"buffer":0,
			"byteLength":96,
			"byteOffset":16792,
			"target":34963
		},
		{
			"buffer":0,
			"byteLength":84,
			"byteOffset":16888,
			"target":34962
		},
		{
			"buffer":0,
			"byteLength":84,
			"byteOffset":16972,
			"target":34962
		},
		{
			"buffer":0,
			"byteLength":56,
			"byteOffset":17056,
			"target":34962
		},
		{
			"buffer":0,
			"byteLength":56,
			"byteOffset":17112,
			"target":34962
		},
		{
			"buffer":0,
			"byteLength":30,
			"byteOffset":17168,
			"target":34963
		}
	],
	"samplers":[
		{
			"magFilter":9729,
			"minFilter":9987
		}
	],
	"buffers":[
		{
			"byteLength":17200,
			"uri":"scene.bin"
		}
	]
}
