{
	"asset":{
		"generator":"Khronos glTF Blender I/O v4.0.44",
		"version":"2.0"
	},
	"scene":0,
	"scenes":[
		{
			"name":"Scene",
			"nodes":[
				2,
				6
			]
		}
	],
	"nodes":[
		{
			"mesh":0,
			"name":"Object_3"
		},
		{
			"children":[
				0
			],
			"name":"Object_2"
		},
		{
			"children":[
				1
			],
			"name":"All1.obj.cleaner.gles",
			"translation":[
				-44.7167854309082,
				-69.65676879882812,
				-119.913330078125
			]
		},
		{
			"mesh":1,
			"name":"Object_3.001",
			"translation":[
				0,
				0,
				-9.359006071463227e-06
			]
		},
		{
			"children":[
				3
			],
			"name":"Object_2.001",
			"translation":[
				0,
				0,
				-9.359006071463227e-06
			]
		},
		{
			"children":[
				4
			],
			"name":"All1.obj.cleaner.gles.001",
			"translation":[
				-44.7167854309082,
				-69.65677642822266,
				-119.913330078125
			]
		},
		{
			"children":[
				5
			],
			"name":"Sketchfab_model.001",
			"rotation":[
				-0.70710688829422,
				0,
				0,
				0.7071066498756409
			],
			"scale":[
				0.010005954653024673,
				0.010005955584347248,
				0.010005955584347248
			]
		}
	],
	"materials":[
		{
			"doubleSided":true,
			"name":"material_0",
			"pbrMetallicRoughness":{
				"baseColorTexture":{
					"index":0
				},
				"metallicRoughnessTexture":{
					"index":1
				}
			}
		},
		{
			"doubleSided":true,
			"name":"material_0.001",
			"pbrMetallicRoughness":{
				"baseColorTexture":{
					"index":2
				},
				"metallicRoughnessTexture":{
					"index":3
				}
			}
		}
	],
	"meshes":[
		{
			"name":"Object_0",
			"primitives":[
				{
					"attributes":{
						"POSITION":0,
						"NORMAL":1,
						"TEXCOORD_0":2
					},
					"indices":3,
					"material":0
				}
			]
		},
		{
			"name":"Object_0.001",
			"primitives":[
				{
					"attributes":{
						"POSITION":4,
						"NORMAL":5,
						"TEXCOORD_0":6
					},
					"indices":7,
					"material":1
				}
			]
		}
	],
	"textures":[
		{
			"sampler":0,
			"source":0
		},
		{
			"sampler":0,
			"source":1
		},
		{
			"sampler":0,
			"source":0
		},
		{
			"sampler":0,
			"source":1
		}
	],
	"images":[
		{
			"mimeType":"image/jpeg",
			"name":"material_0_baseColor",
			"uri":"textures/material_0_baseColor.jpg"
		},
		{
			"mimeType":"image/png",
			"name":"material_0_metallicRoughness",
			"uri":"textures/material_0_metallicRoughness.png"
		}
	],
	"accessors":[
		{
			"bufferView":0,
			"componentType":5126,
			"count":2016,
			"max":[
				56.621273040771484,
				139.31353759765625,
				239.82662963867188
			],
			"min":[
				32.465293884277344,
				102.63735961914062,
				206.9344482421875
			],
			"type":"VEC3"
		},
		{
			"bufferView":1,
			"componentType":5126,
			"count":2016,
			"type":"VEC3"
		},
		{
			"bufferView":2,
			"componentType":5126,
			"count":2016,
			"type":"VEC2"
		},
		{
			"bufferView":3,
			"componentType":5123,
			"count":5550,
			"type":"SCALAR"
		},
		{
			"bufferView":4,
			"componentType":5126,
			"count":2250,
			"max":[
				56.621273040771484,
				139.31353759765625,
				239.82662963867188
			],
			"min":[
				32.465293884277344,
				31.706409454345703,
				166.30392456054688
			],
			"type":"VEC3"
		},
		{
			"bufferView":5,
			"componentType":5126,
			"count":2250,
			"type":"VEC3"
		},
		{
			"bufferView":6,
			"componentType":5126,
			"count":2250,
			"type":"VEC2"
		},
		{
			"bufferView":7,
			"componentType":5123,
			"count":6186,
			"type":"SCALAR"
		}
	],
	"bufferViews":[
		{
			"buffer":0,
			"byteLength":24192,
			"byteOffset":0,
			"target":34962
		},
		{
			"buffer":0,
			"byteLength":24192,
			"byteOffset":24192,
			"target":34962
		},
		{
			"buffer":0,
			"byteLength":16128,
			"byteOffset":48384,
			"target":34962
		},
		{
			"buffer":0,
			"byteLength":11100,
			"byteOffset":64512,
			"target":34963
		},
		{
			"buffer":0,
			"byteLength":27000,
			"byteOffset":75612,
			"target":34962
		},
		{
			"buffer":0,
			"byteLength":27000,
			"byteOffset":102612,
			"target":34962
		},
		{
			"buffer":0,
			"byteLength":18000,
			"byteOffset":129612,
			"target":34962
		},
		{
			"buffer":0,
			"byteLength":12372,
			"byteOffset":147612,
			"target":34963
		}
	],
	"samplers":[
		{
			"magFilter":9729,
			"minFilter":9987
		}
	],
	"buffers":[
		{
			"byteLength":159984,
			"uri":"scene.bin"
		}
	]
}
